<svg width="165" height="13" viewBox="0 0 165 13" fill="none" xmlns="http://www.w3.org/2000/svg">
<path d="M0.758523 10V1.27273H4.2017C4.86364 1.27273 5.42756 1.39915 5.89347 1.65199C6.35938 1.90199 6.71449 2.25 6.95881 2.69602C7.20597 3.1392 7.32955 3.65057 7.32955 4.23011C7.32955 4.80966 7.20455 5.32102 6.95455 5.7642C6.70455 6.20739 6.34233 6.55256 5.8679 6.79972C5.39631 7.04687 4.82528 7.17045 4.15483 7.17045H1.96023V5.69176H3.85653C4.21165 5.69176 4.50426 5.63068 4.73438 5.50852C4.96733 5.38352 5.14063 5.21165 5.25426 4.9929C5.37074 4.77131 5.42898 4.51705 5.42898 4.23011C5.42898 3.94034 5.37074 3.6875 5.25426 3.47159C5.14063 3.25284 4.96733 3.08381 4.73438 2.96449C4.50142 2.84233 4.20597 2.78125 3.84801 2.78125H2.60369V10H0.758523ZM10.1847 10.1236C9.76705 10.1236 9.39489 10.0511 9.06818 9.90625C8.74148 9.75852 8.48295 9.54119 8.29261 9.25426C8.10511 8.96449 8.01136 8.60369 8.01136 8.17188C8.01136 7.80824 8.07813 7.50284 8.21165 7.25568C8.34517 7.00852 8.52699 6.80966 8.7571 6.65909C8.98722 6.50852 9.24858 6.39489 9.54119 6.31818C9.83665 6.24148 10.1463 6.1875 10.4702 6.15625C10.8509 6.11648 11.1577 6.07955 11.3906 6.04545C11.6236 6.00852 11.7926 5.95455 11.8977 5.88352C12.0028 5.8125 12.0554 5.70739 12.0554 5.56818V5.54261C12.0554 5.27273 11.9702 5.06392 11.7997 4.91619C11.6321 4.76847 11.3935 4.6946 11.0838 4.6946C10.7571 4.6946 10.4972 4.76705 10.304 4.91193C10.1108 5.05398 9.98295 5.23295 9.92045 5.44886L8.24148 5.3125C8.3267 4.91477 8.49432 4.57102 8.74432 4.28125C8.99432 3.98864 9.31676 3.7642 9.71165 3.60795C10.1094 3.44886 10.5696 3.36932 11.0923 3.36932C11.456 3.36932 11.804 3.41193 12.1364 3.49716C12.4716 3.58239 12.7685 3.71449 13.027 3.89347C13.2884 4.07244 13.4943 4.30256 13.6449 4.58381C13.7955 4.86222 13.8707 5.19602 13.8707 5.58523V10H12.1491V9.09233H12.098C11.9929 9.29688 11.8523 9.47727 11.6761 9.63352C11.5 9.78693 11.2884 9.90767 11.0412 9.99574C10.794 10.081 10.5085 10.1236 10.1847 10.1236ZM10.7045 8.87074C10.9716 8.87074 11.2074 8.81818 11.4119 8.71307C11.6165 8.60511 11.777 8.46023 11.8935 8.27841C12.0099 8.09659 12.0682 7.89062 12.0682 7.66051V6.96591C12.0114 7.00284 11.9332 7.03693 11.8338 7.06818C11.7372 7.09659 11.6278 7.12358 11.5057 7.14915C11.3835 7.17187 11.2614 7.19318 11.1392 7.21307C11.017 7.23011 10.9062 7.24574 10.8068 7.25994C10.5938 7.29119 10.4077 7.34091 10.2486 7.40909C10.0895 7.47727 9.96591 7.5696 9.87784 7.68608C9.78977 7.79972 9.74574 7.94176 9.74574 8.11222C9.74574 8.35938 9.83523 8.5483 10.0142 8.67898C10.196 8.80682 10.4261 8.87074 10.7045 8.87074ZM18.228 12.5909C17.6399 12.5909 17.1357 12.5099 16.7152 12.348C16.2976 12.1889 15.9652 11.9716 15.718 11.696C15.4709 11.4205 15.3104 11.1108 15.2365 10.767L16.9155 10.5412C16.9666 10.6719 17.0476 10.794 17.1584 10.9077C17.2692 11.0213 17.4155 11.1122 17.5973 11.1804C17.782 11.2514 18.0064 11.2869 18.2706 11.2869C18.6655 11.2869 18.9908 11.1903 19.2464 10.9972C19.505 10.8068 19.6342 10.4872 19.6342 10.0384V8.84091H19.5575C19.478 9.02273 19.3587 9.1946 19.1996 9.35653C19.0405 9.51847 18.8359 9.65057 18.5859 9.75284C18.3359 9.85511 18.0376 9.90625 17.6911 9.90625C17.1996 9.90625 16.7521 9.79261 16.3487 9.56534C15.9482 9.33523 15.6286 8.98437 15.3899 8.51278C15.1541 8.03835 15.0362 7.43892 15.0362 6.71449C15.0362 5.97301 15.157 5.35369 15.3984 4.85653C15.6399 4.35937 15.9609 3.98722 16.3615 3.74006C16.7649 3.4929 17.2067 3.36932 17.6868 3.36932C18.0533 3.36932 18.3601 3.43182 18.6072 3.55682C18.8544 3.67898 19.0533 3.83239 19.2038 4.01705C19.3572 4.19886 19.4751 4.37784 19.5575 4.55398H19.6257V3.45455H21.4283V10.0639C21.4283 10.6207 21.2919 11.0866 21.0192 11.4616C20.7464 11.8366 20.3686 12.1179 19.8857 12.3054C19.4055 12.4957 18.853 12.5909 18.228 12.5909ZM18.2663 8.54261C18.5589 8.54261 18.8061 8.47017 19.0078 8.32528C19.2124 8.17756 19.3686 7.96733 19.4766 7.6946C19.5874 7.41903 19.6428 7.08949 19.6428 6.70597C19.6428 6.32244 19.5888 5.99006 19.4808 5.70881C19.3729 5.42472 19.2166 5.20455 19.0121 5.0483C18.8075 4.89205 18.5589 4.81392 18.2663 4.81392C17.968 4.81392 17.7166 4.89489 17.5121 5.05682C17.3075 5.21591 17.1527 5.4375 17.0476 5.72159C16.9425 6.00568 16.8899 6.33381 16.8899 6.70597C16.8899 7.08381 16.9425 7.41051 17.0476 7.68608C17.1555 7.95881 17.3104 8.17045 17.5121 8.32102C17.7166 8.46875 17.968 8.54261 18.2663 8.54261ZM27.0703 7.21307V3.45455H28.8857V10H27.1428V8.81108H27.0746C26.9268 9.1946 26.6811 9.50284 26.3374 9.7358C25.9964 9.96875 25.5803 10.0852 25.0888 10.0852C24.6513 10.0852 24.2663 9.9858 23.9339 9.78693C23.6016 9.58807 23.3416 9.3054 23.1541 8.93892C22.9695 8.57244 22.8757 8.13352 22.8729 7.62216V3.45455H24.6882V7.2983C24.6911 7.68466 24.7947 7.99006 24.9993 8.21449C25.2038 8.43892 25.478 8.55114 25.8217 8.55114C26.0405 8.55114 26.245 8.50142 26.4354 8.40199C26.6257 8.29972 26.7791 8.14915 26.8956 7.95028C27.0149 7.75142 27.0732 7.50568 27.0703 7.21307ZM33.3207 10.1278C32.6474 10.1278 32.0678 9.99148 31.582 9.71875C31.0991 9.44318 30.7269 9.05398 30.4656 8.55114C30.2042 8.04545 30.0735 7.44744 30.0735 6.7571C30.0735 6.08381 30.2042 5.4929 30.4656 4.98438C30.7269 4.47585 31.0948 4.07955 31.5692 3.79545C32.0465 3.51136 32.6062 3.36932 33.2482 3.36932C33.68 3.36932 34.082 3.43892 34.4542 3.57812C34.8292 3.71449 35.1559 3.92045 35.4343 4.19602C35.7156 4.47159 35.9343 4.81818 36.0906 5.2358C36.2468 5.65057 36.3249 6.13636 36.3249 6.69318V7.19176H30.7979V6.06676H34.6161C34.6161 5.8054 34.5593 5.57386 34.4457 5.37216C34.332 5.17045 34.1744 5.01278 33.9727 4.89915C33.7738 4.78267 33.5423 4.72443 33.2781 4.72443C33.0025 4.72443 32.7582 4.78835 32.5451 4.91619C32.3349 5.04119 32.1701 5.21023 32.0508 5.4233C31.9315 5.63352 31.8704 5.8679 31.8675 6.12642V7.19602C31.8675 7.51989 31.9272 7.79972 32.0465 8.03551C32.1687 8.27131 32.3406 8.45312 32.5621 8.58097C32.7837 8.70881 33.0465 8.77273 33.3505 8.77273C33.5522 8.77273 33.7369 8.74432 33.9045 8.6875C34.0721 8.63068 34.2156 8.54545 34.3349 8.43182C34.4542 8.31818 34.5451 8.17898 34.6076 8.0142L36.2866 8.125C36.2013 8.52841 36.0266 8.88068 35.7624 9.18182C35.5011 9.48011 35.163 9.71307 34.7482 9.88068C34.3363 10.0455 33.8604 10.1278 33.3207 10.1278ZM43.2443 10.1278C42.5739 10.1278 41.9972 9.9858 41.5142 9.7017C41.0341 9.41477 40.6648 9.01705 40.4062 8.50852C40.1506 8 40.0227 7.41477 40.0227 6.75284C40.0227 6.08239 40.152 5.49432 40.4105 4.98864C40.6719 4.48011 41.0426 4.08381 41.5227 3.79972C42.0028 3.51278 42.5739 3.36932 43.2358 3.36932C43.8068 3.36932 44.3068 3.47301 44.7358 3.6804C45.1648 3.88778 45.5043 4.17898 45.7543 4.55398C46.0043 4.92898 46.142 5.36932 46.1676 5.875H44.4545C44.4063 5.5483 44.2784 5.28551 44.071 5.08665C43.8665 4.88494 43.598 4.78409 43.2656 4.78409C42.9844 4.78409 42.7386 4.8608 42.5284 5.0142C42.321 5.16477 42.1591 5.38494 42.0426 5.67472C41.9261 5.96449 41.8679 6.31534 41.8679 6.72727C41.8679 7.14489 41.9247 7.5 42.0384 7.79261C42.1548 8.08523 42.3182 8.30824 42.5284 8.46165C42.7386 8.61506 42.9844 8.69176 43.2656 8.69176C43.473 8.69176 43.6591 8.64915 43.8239 8.56392C43.9915 8.47869 44.1293 8.35511 44.2372 8.19318C44.348 8.02841 44.4205 7.83097 44.4545 7.60085H46.1676C46.1392 8.10085 46.0028 8.54119 45.7585 8.92188C45.517 9.29972 45.1832 9.59517 44.7571 9.80824C44.331 10.0213 43.8267 10.1278 43.2443 10.1278ZM50.2873 10.1278C49.6254 10.1278 49.0529 9.98722 48.57 9.70597C48.0898 9.42187 47.7191 9.02699 47.4577 8.52131C47.1964 8.01278 47.0657 7.4233 47.0657 6.75284C47.0657 6.0767 47.1964 5.4858 47.4577 4.98011C47.7191 4.47159 48.0898 4.0767 48.57 3.79545C49.0529 3.51136 49.6254 3.36932 50.2873 3.36932C50.9492 3.36932 51.5202 3.51136 52.0004 3.79545C52.4833 4.0767 52.8555 4.47159 53.1168 4.98011C53.3782 5.4858 53.5089 6.0767 53.5089 6.75284C53.5089 7.4233 53.3782 8.01278 53.1168 8.52131C52.8555 9.02699 52.4833 9.42187 52.0004 9.70597C51.5202 9.98722 50.9492 10.1278 50.2873 10.1278ZM50.2958 8.72159C50.5969 8.72159 50.8484 8.63636 51.0501 8.46591C51.2518 8.29261 51.4038 8.05682 51.506 7.75852C51.6112 7.46023 51.6637 7.12074 51.6637 6.74006C51.6637 6.35938 51.6112 6.01989 51.506 5.72159C51.4038 5.4233 51.2518 5.1875 51.0501 5.0142C50.8484 4.84091 50.5969 4.75426 50.2958 4.75426C49.9918 4.75426 49.7362 4.84091 49.5288 5.0142C49.3242 5.1875 49.1694 5.4233 49.0643 5.72159C48.962 6.01989 48.9109 6.35938 48.9109 6.74006C48.9109 7.12074 48.962 7.46023 49.0643 7.75852C49.1694 8.05682 49.3242 8.29261 49.5288 8.46591C49.7362 8.63636 49.9918 8.72159 50.2958 8.72159ZM54.6893 10V3.45455H56.4194V4.60938H56.4961C56.6325 4.22585 56.8597 3.9233 57.1779 3.7017C57.4961 3.48011 57.8768 3.36932 58.32 3.36932C58.7688 3.36932 59.1509 3.48153 59.4663 3.70597C59.7816 3.92756 59.9918 4.22869 60.0969 4.60938H60.1651C60.2987 4.23438 60.5401 3.93466 60.8896 3.71023C61.2418 3.48295 61.658 3.36932 62.1381 3.36932C62.7489 3.36932 63.2447 3.56392 63.6254 3.95312C64.0089 4.33949 64.2006 4.88778 64.2006 5.59801V10H62.3896V5.95597C62.3896 5.59233 62.293 5.3196 62.0998 5.13778C61.9066 4.95597 61.6651 4.86506 61.3754 4.86506C61.0458 4.86506 60.7887 4.97017 60.604 5.1804C60.4194 5.38778 60.3271 5.66193 60.3271 6.00284V10H58.5671V5.91761C58.5671 5.59659 58.4748 5.34091 58.2901 5.15057C58.1083 4.96023 57.8683 4.86506 57.57 4.86506C57.3683 4.86506 57.1864 4.91619 57.0245 5.01847C56.8654 5.1179 56.739 5.25852 56.6452 5.44034C56.5515 5.61932 56.5046 5.82955 56.5046 6.07102V10H54.6893ZM68.446 1.27273H70.7216L73.125 7.13636H73.2273L75.6307 1.27273H77.9062V10H76.1165V4.3196H76.044L73.7855 9.95739H72.5668L70.3082 4.2983H70.2358V10H68.446V1.27273ZM82.3754 10.1278C81.7021 10.1278 81.1225 9.99148 80.6367 9.71875C80.1538 9.44318 79.7816 9.05398 79.5202 8.55114C79.2589 8.04545 79.1282 7.44744 79.1282 6.7571C79.1282 6.08381 79.2589 5.4929 79.5202 4.98438C79.7816 4.47585 80.1495 4.07955 80.6239 3.79545C81.1012 3.51136 81.6609 3.36932 82.3029 3.36932C82.7347 3.36932 83.1367 3.43892 83.5089 3.57812C83.8839 3.71449 84.2106 3.92045 84.489 4.19602C84.7702 4.47159 84.989 4.81818 85.1452 5.2358C85.3015 5.65057 85.3796 6.13636 85.3796 6.69318V7.19176H79.8526V6.06676H83.6708C83.6708 5.8054 83.614 5.57386 83.5004 5.37216C83.3867 5.17045 83.229 5.01278 83.0273 4.89915C82.8285 4.78267 82.5969 4.72443 82.3327 4.72443C82.0572 4.72443 81.8129 4.78835 81.5998 4.91619C81.3896 5.04119 81.2248 5.21023 81.1055 5.4233C80.9862 5.63352 80.9251 5.8679 80.9222 6.12642V7.19602C80.9222 7.51989 80.9819 7.79972 81.1012 8.03551C81.2234 8.27131 81.3952 8.45312 81.6168 8.58097C81.8384 8.70881 82.1012 8.77273 82.4052 8.77273C82.6069 8.77273 82.7915 8.74432 82.9592 8.6875C83.1268 8.63068 83.2702 8.54545 83.3896 8.43182C83.5089 8.31818 83.5998 8.17898 83.6623 8.0142L85.3413 8.125C85.256 8.52841 85.0813 8.88068 84.8171 9.18182C84.5558 9.48011 84.2177 9.71307 83.8029 9.88068C83.391 10.0455 82.9151 10.1278 82.3754 10.1278ZM86.5643 10V3.45455H88.3242V4.59659H88.3924C88.5117 4.19034 88.712 3.88352 88.9933 3.67614C89.2745 3.46591 89.5984 3.3608 89.9648 3.3608C90.0558 3.3608 90.1538 3.36648 90.2589 3.37784C90.364 3.3892 90.4563 3.40483 90.5359 3.42472V5.03551C90.4506 5.00994 90.3327 4.98722 90.1822 4.96733C90.0316 4.94744 89.8938 4.9375 89.7688 4.9375C89.5018 4.9375 89.2631 4.99574 89.0529 5.11222C88.8455 5.22585 88.6808 5.38494 88.5586 5.58949C88.4393 5.79403 88.3796 6.02983 88.3796 6.29688V10H86.5643ZM94.1271 10.1278C93.4567 10.1278 92.88 9.9858 92.397 9.7017C91.9169 9.41477 91.5476 9.01705 91.2891 8.50852C91.0334 8 90.9055 7.41477 90.9055 6.75284C90.9055 6.08239 91.0348 5.49432 91.2933 4.98864C91.5547 4.48011 91.9254 4.08381 92.4055 3.79972C92.8857 3.51278 93.4567 3.36932 94.1186 3.36932C94.6896 3.36932 95.1896 3.47301 95.6186 3.6804C96.0476 3.88778 96.3871 4.17898 96.6371 4.55398C96.8871 4.92898 97.0249 5.36932 97.0504 5.875H95.3374C95.2891 5.5483 95.1612 5.28551 94.9538 5.08665C94.7493 4.88494 94.4808 4.78409 94.1484 4.78409C93.8672 4.78409 93.6214 4.8608 93.4112 5.0142C93.2038 5.16477 93.0419 5.38494 92.9254 5.67472C92.8089 5.96449 92.7507 6.31534 92.7507 6.72727C92.7507 7.14489 92.8075 7.5 92.9212 7.79261C93.0376 8.08523 93.201 8.30824 93.4112 8.46165C93.6214 8.61506 93.8672 8.69176 94.1484 8.69176C94.3558 8.69176 94.5419 8.64915 94.7067 8.56392C94.8743 8.47869 95.0121 8.35511 95.12 8.19318C95.2308 8.02841 95.3033 7.83097 95.3374 7.60085H97.0504C97.022 8.10085 96.8857 8.54119 96.6413 8.92188C96.3999 9.29972 96.0661 9.59517 95.6399 9.80824C95.2138 10.0213 94.7095 10.1278 94.1271 10.1278ZM100.079 10.1236C99.6616 10.1236 99.2894 10.0511 98.9627 9.90625C98.636 9.75852 98.3775 9.54119 98.1871 9.25426C97.9996 8.96449 97.9059 8.60369 97.9059 8.17188C97.9059 7.80824 97.9727 7.50284 98.1062 7.25568C98.2397 7.00852 98.4215 6.80966 98.6516 6.65909C98.8817 6.50852 99.1431 6.39489 99.4357 6.31818C99.7312 6.24148 100.041 6.1875 100.365 6.15625C100.745 6.11648 101.052 6.07955 101.285 6.04545C101.518 6.00852 101.687 5.95455 101.792 5.88352C101.897 5.8125 101.95 5.70739 101.95 5.56818V5.54261C101.95 5.27273 101.865 5.06392 101.694 4.91619C101.527 4.76847 101.288 4.6946 100.978 4.6946C100.652 4.6946 100.392 4.76705 100.199 4.91193C100.005 5.05398 99.8775 5.23295 99.815 5.44886L98.136 5.3125C98.2212 4.91477 98.3888 4.57102 98.6388 4.28125C98.8888 3.98864 99.2113 3.7642 99.6062 3.60795C100.004 3.44886 100.464 3.36932 100.987 3.36932C101.35 3.36932 101.699 3.41193 102.031 3.49716C102.366 3.58239 102.663 3.71449 102.922 3.89347C103.183 4.07244 103.389 4.30256 103.539 4.58381C103.69 4.86222 103.765 5.19602 103.765 5.58523V10H102.044V9.09233H101.993C101.887 9.29688 101.747 9.47727 101.571 9.63352C101.395 9.78693 101.183 9.90767 100.936 9.99574C100.689 10.081 100.403 10.1236 100.079 10.1236ZM100.599 8.87074C100.866 8.87074 101.102 8.81818 101.306 8.71307C101.511 8.60511 101.672 8.46023 101.788 8.27841C101.904 8.09659 101.963 7.89062 101.963 7.66051V6.96591C101.906 7.00284 101.828 7.03693 101.728 7.06818C101.632 7.09659 101.522 7.12358 101.4 7.14915C101.278 7.17187 101.156 7.19318 101.034 7.21307C100.912 7.23011 100.801 7.24574 100.701 7.25994C100.488 7.29119 100.302 7.34091 100.143 7.40909C99.984 7.47727 99.8604 7.5696 99.7724 7.68608C99.6843 7.79972 99.6403 7.94176 99.6403 8.11222C99.6403 8.35938 99.7298 8.5483 99.9087 8.67898C100.091 8.80682 100.321 8.87074 100.599 8.87074ZM107.586 10.1065C107.088 10.1065 106.638 9.97869 106.235 9.72301C105.834 9.46449 105.516 9.08523 105.28 8.58523C105.047 8.08239 104.931 7.46591 104.931 6.7358C104.931 5.9858 105.051 5.36222 105.293 4.86506C105.534 4.36506 105.855 3.99148 106.256 3.74432C106.659 3.49432 107.101 3.36932 107.581 3.36932C107.948 3.36932 108.253 3.43182 108.498 3.55682C108.745 3.67898 108.944 3.83239 109.094 4.01705C109.248 4.19886 109.364 4.37784 109.444 4.55398H109.499V1.27273H111.31V10H109.52V8.9517H109.444C109.358 9.13352 109.238 9.31392 109.081 9.4929C108.928 9.66903 108.728 9.81534 108.48 9.93182C108.236 10.0483 107.938 10.1065 107.586 10.1065ZM108.161 8.66193C108.453 8.66193 108.701 8.58239 108.902 8.4233C109.107 8.26136 109.263 8.03551 109.371 7.74574C109.482 7.45597 109.537 7.11648 109.537 6.72727C109.537 6.33807 109.483 6 109.375 5.71307C109.267 5.42614 109.111 5.20455 108.907 5.0483C108.702 4.89205 108.453 4.81392 108.161 4.81392C107.863 4.81392 107.611 4.89489 107.407 5.05682C107.202 5.21875 107.047 5.44318 106.942 5.73011C106.837 6.01705 106.784 6.34943 106.784 6.72727C106.784 7.10795 106.837 7.4446 106.942 7.73722C107.05 8.02699 107.205 8.25426 107.407 8.41903C107.611 8.58097 107.863 8.66193 108.161 8.66193ZM115.76 10.1278C115.098 10.1278 114.526 9.98722 114.043 9.70597C113.563 9.42187 113.192 9.02699 112.93 8.52131C112.669 8.01278 112.538 7.4233 112.538 6.75284C112.538 6.0767 112.669 5.4858 112.93 4.98011C113.192 4.47159 113.563 4.0767 114.043 3.79545C114.526 3.51136 115.098 3.36932 115.76 3.36932C116.422 3.36932 116.993 3.51136 117.473 3.79545C117.956 4.0767 118.328 4.47159 118.589 4.98011C118.851 5.4858 118.982 6.0767 118.982 6.75284C118.982 7.4233 118.851 8.01278 118.589 8.52131C118.328 9.02699 117.956 9.42187 117.473 9.70597C116.993 9.98722 116.422 10.1278 115.76 10.1278ZM115.768 8.72159C116.07 8.72159 116.321 8.63636 116.523 8.46591C116.724 8.29261 116.876 8.05682 116.979 7.75852C117.084 7.46023 117.136 7.12074 117.136 6.74006C117.136 6.35938 117.084 6.01989 116.979 5.72159C116.876 5.4233 116.724 5.1875 116.523 5.0142C116.321 4.84091 116.07 4.75426 115.768 4.75426C115.464 4.75426 115.209 4.84091 115.001 5.0142C114.797 5.1875 114.642 5.4233 114.537 5.72159C114.435 6.01989 114.384 6.35938 114.384 6.74006C114.384 7.12074 114.435 7.46023 114.537 7.75852C114.642 8.05682 114.797 8.29261 115.001 8.46591C115.209 8.63636 115.464 8.72159 115.768 8.72159ZM130.674 4.32812H128.807C128.773 4.08665 128.703 3.87216 128.598 3.68466C128.493 3.49432 128.358 3.33239 128.194 3.19886C128.029 3.06534 127.838 2.96307 127.623 2.89205C127.409 2.82102 127.178 2.78551 126.928 2.78551C126.476 2.78551 126.083 2.89773 125.748 3.12216C125.412 3.34375 125.152 3.66761 124.968 4.09375C124.783 4.51705 124.691 5.03125 124.691 5.63636C124.691 6.25852 124.783 6.78125 124.968 7.20455C125.155 7.62784 125.417 7.94744 125.752 8.16335C126.087 8.37926 126.475 8.48722 126.915 8.48722C127.162 8.48722 127.391 8.45455 127.601 8.3892C127.814 8.32386 128.003 8.22869 128.168 8.10369C128.333 7.97585 128.469 7.82102 128.577 7.6392C128.688 7.45739 128.765 7.25 128.807 7.01705L130.674 7.02557C130.625 7.42614 130.505 7.8125 130.311 8.18466C130.121 8.55398 129.864 8.88494 129.54 9.17756C129.219 9.46733 128.836 9.69744 128.39 9.8679C127.946 10.0355 127.445 10.1193 126.885 10.1193C126.107 10.1193 125.411 9.94318 124.797 9.59091C124.186 9.23864 123.703 8.72869 123.348 8.06108C122.996 7.39347 122.82 6.58523 122.82 5.63636C122.82 4.68466 122.999 3.875 123.357 3.20739C123.715 2.53977 124.201 2.03125 124.814 1.68182C125.428 1.32955 126.118 1.15341 126.885 1.15341C127.391 1.15341 127.86 1.22443 128.292 1.36648C128.726 1.50852 129.111 1.71591 129.446 1.98864C129.782 2.25852 130.054 2.58949 130.265 2.98153C130.478 3.37358 130.614 3.82244 130.674 4.32812ZM131.963 10V3.45455H133.723V4.59659H133.791C133.91 4.19034 134.11 3.88352 134.392 3.67614C134.673 3.46591 134.997 3.3608 135.363 3.3608C135.454 3.3608 135.552 3.36648 135.657 3.37784C135.762 3.3892 135.855 3.40483 135.934 3.42472V5.03551C135.849 5.00994 135.731 4.98722 135.581 4.96733C135.43 4.94744 135.292 4.9375 135.167 4.9375C134.9 4.9375 134.662 4.99574 134.451 5.11222C134.244 5.22585 134.079 5.38494 133.957 5.58949C133.838 5.79403 133.778 6.02983 133.778 6.29688V10H131.963ZM139.551 10.1278C138.878 10.1278 138.298 9.99148 137.812 9.71875C137.33 9.44318 136.957 9.05398 136.696 8.55114C136.435 8.04545 136.304 7.44744 136.304 6.7571C136.304 6.08381 136.435 5.4929 136.696 4.98438C136.957 4.47585 137.325 4.07955 137.8 3.79545C138.277 3.51136 138.837 3.36932 139.479 3.36932C139.911 3.36932 140.313 3.43892 140.685 3.57812C141.06 3.71449 141.386 3.92045 141.665 4.19602C141.946 4.47159 142.165 4.81818 142.321 5.2358C142.477 5.65057 142.555 6.13636 142.555 6.69318V7.19176H137.028V6.06676H140.847C140.847 5.8054 140.79 5.57386 140.676 5.37216C140.563 5.17045 140.405 5.01278 140.203 4.89915C140.004 4.78267 139.773 4.72443 139.509 4.72443C139.233 4.72443 138.989 4.78835 138.776 4.91619C138.565 5.04119 138.401 5.21023 138.281 5.4233C138.162 5.63352 138.101 5.8679 138.098 6.12642V7.19602C138.098 7.51989 138.158 7.79972 138.277 8.03551C138.399 8.27131 138.571 8.45312 138.793 8.58097C139.014 8.70881 139.277 8.77273 139.581 8.77273C139.783 8.77273 139.967 8.74432 140.135 8.6875C140.303 8.63068 140.446 8.54545 140.565 8.43182C140.685 8.31818 140.776 8.17898 140.838 8.0142L142.517 8.125C142.432 8.52841 142.257 8.88068 141.993 9.18182C141.732 9.48011 141.393 9.71307 140.979 9.88068C140.567 10.0455 140.091 10.1278 139.551 10.1278ZM146.152 10.1065C145.655 10.1065 145.205 9.97869 144.801 9.72301C144.401 9.46449 144.082 9.08523 143.847 8.58523C143.614 8.08239 143.497 7.46591 143.497 6.7358C143.497 5.9858 143.618 5.36222 143.859 4.86506C144.101 4.36506 144.422 3.99148 144.822 3.74432C145.226 3.49432 145.668 3.36932 146.148 3.36932C146.514 3.36932 146.82 3.43182 147.064 3.55682C147.311 3.67898 147.51 3.83239 147.661 4.01705C147.814 4.19886 147.93 4.37784 148.01 4.55398H148.065V1.27273H149.876V10H148.087V8.9517H148.01C147.925 9.13352 147.804 9.31392 147.648 9.4929C147.494 9.66903 147.294 9.81534 147.047 9.93182C146.803 10.0483 146.504 10.1065 146.152 10.1065ZM146.727 8.66193C147.02 8.66193 147.267 8.58239 147.469 8.4233C147.673 8.26136 147.83 8.03551 147.938 7.74574C148.048 7.45597 148.104 7.11648 148.104 6.72727C148.104 6.33807 148.05 6 147.942 5.71307C147.834 5.42614 147.678 5.20455 147.473 5.0483C147.268 4.89205 147.02 4.81392 146.727 4.81392C146.429 4.81392 146.178 4.89489 145.973 5.05682C145.768 5.21875 145.614 5.44318 145.509 5.73011C145.403 6.01705 145.351 6.34943 145.351 6.72727C145.351 7.10795 145.403 7.4446 145.509 7.73722C145.616 8.02699 145.771 8.25426 145.973 8.41903C146.178 8.58097 146.429 8.66193 146.727 8.66193ZM151.369 10V3.45455H153.184V10H151.369ZM152.281 2.6108C152.011 2.6108 151.779 2.52131 151.586 2.34233C151.396 2.16051 151.301 1.94318 151.301 1.69034C151.301 1.44034 151.396 1.22585 151.586 1.04688C151.779 0.865057 152.011 0.774147 152.281 0.774147C152.551 0.774147 152.781 0.865057 152.971 1.04688C153.164 1.22585 153.261 1.44034 153.261 1.69034C153.261 1.94318 153.164 2.16051 152.971 2.34233C152.781 2.52131 152.551 2.6108 152.281 2.6108ZM158.12 3.45455V4.81818H154.178V3.45455H158.12ZM155.073 1.88636H156.888V7.98864C156.888 8.15625 156.914 8.28693 156.965 8.38068C157.016 8.47159 157.087 8.53551 157.178 8.57244C157.272 8.60937 157.38 8.62784 157.502 8.62784C157.587 8.62784 157.673 8.62074 157.758 8.60653C157.843 8.58949 157.908 8.5767 157.954 8.56818L158.239 9.91903C158.148 9.94744 158.021 9.98011 157.856 10.017C157.691 10.0568 157.491 10.081 157.255 10.0895C156.817 10.1065 156.434 10.0483 156.104 9.91477C155.778 9.78125 155.523 9.57386 155.342 9.29261C155.16 9.01136 155.07 8.65625 155.073 8.22727V1.88636ZM164.667 5.32102L163.005 5.4233C162.976 5.28125 162.915 5.15341 162.821 5.03977C162.728 4.9233 162.604 4.83097 162.451 4.76278C162.3 4.69176 162.12 4.65625 161.909 4.65625C161.628 4.65625 161.391 4.71591 161.198 4.83523C161.005 4.9517 160.908 5.10795 160.908 5.30398C160.908 5.46023 160.971 5.59233 161.096 5.70028C161.221 5.80824 161.435 5.89489 161.739 5.96023L162.924 6.19886C163.56 6.32955 164.034 6.53977 164.347 6.82955C164.659 7.11932 164.816 7.5 164.816 7.97159C164.816 8.40057 164.689 8.77699 164.436 9.10085C164.186 9.42472 163.843 9.67756 163.405 9.85938C162.971 10.0384 162.469 10.1278 161.901 10.1278C161.034 10.1278 160.344 9.94744 159.83 9.58665C159.319 9.22301 159.019 8.72869 158.931 8.10369L160.716 8.00994C160.77 8.27415 160.901 8.47585 161.108 8.61506C161.316 8.75142 161.581 8.8196 161.905 8.8196C162.223 8.8196 162.479 8.75852 162.672 8.63636C162.868 8.51136 162.968 8.35085 162.971 8.15483C162.968 7.99006 162.898 7.85511 162.762 7.75C162.625 7.64205 162.415 7.55966 162.131 7.50284L160.998 7.27699C160.358 7.14915 159.882 6.92756 159.57 6.61222C159.26 6.29687 159.105 5.89489 159.105 5.40625C159.105 4.9858 159.219 4.62358 159.446 4.3196C159.676 4.01562 159.999 3.78125 160.414 3.61648C160.831 3.4517 161.32 3.36932 161.88 3.36932C162.706 3.36932 163.357 3.54403 163.831 3.89347C164.309 4.2429 164.587 4.71875 164.667 5.32102Z" fill="#0284E2"/>
</svg>
