<svg width="21" height="21" viewBox="0 0 21 21" fill="none" xmlns="http://www.w3.org/2000/svg">
<path d="M10.0469 16.8136C15.5577 16.8136 19.0469 14.1304 19.0469 10.8157C19.0469 10.7009 19.0469 10.6329 19.0469 10.484C19.0469 7.36073 15.017 4.8136 10.0469 4.8136C5.07678 4.8136 1.04688 7.36073 1.04688 10.484C1.04688 10.5648 1.04688 10.7881 1.04688 10.8157C1.04688 14.1304 4.56918 16.8136 10.0469 16.8136ZM18.643 9.8547C16.6876 10.2736 15.2288 10.8816 14.8625 11.039C14.0084 10.3203 12.0353 8.66832 11.5013 8.28136C11.1967 8.06024 10.987 7.94329 10.8039 7.89014C10.7222 7.86675 10.6074 7.83911 10.4618 7.83911C10.3249 7.83911 10.1793 7.8625 10.027 7.90928C9.68052 8.01559 9.33623 8.2771 9.00519 8.53224L8.98753 8.545C8.67855 8.78313 8.35633 9.02762 8.11357 9.08078C8.00763 9.10417 7.8995 9.1148 7.79136 9.1148C7.5199 9.1148 7.27493 9.03826 7.18444 8.92557C7.16899 8.90644 7.18003 8.87667 7.21534 8.83415L7.21975 8.82777L7.97012 8.04747C8.55938 7.47979 9.11332 6.94612 10.3934 6.91635C10.4154 6.91635 10.4353 6.91635 10.4574 6.91635C11.2541 6.91635 12.0486 7.26079 12.1391 7.29906C12.885 7.64988 13.6553 7.82848 14.4299 7.82848C15.2355 7.82848 16.0675 7.63712 16.9392 7.25016C17.8529 7.99432 18.4576 8.88517 18.643 9.8547ZM10.0491 5.14739C12.6864 5.14739 15.0479 5.87667 16.6347 7.02266C15.8666 7.34159 15.1361 7.50318 14.4299 7.50318C13.7082 7.50318 12.9865 7.33522 12.2847 7.00566C12.2472 6.98865 11.3688 6.58893 10.4552 6.58893C10.4309 6.58893 10.4066 6.58893 10.3823 6.58893C9.30754 6.61232 8.70283 6.98014 8.29675 7.30332C7.9017 7.31182 7.55963 7.40537 7.25507 7.48616C6.98361 7.55845 6.74967 7.62224 6.52235 7.62224C6.42745 7.62224 6.25972 7.61374 6.24427 7.61374C5.98164 7.60524 4.6663 7.29482 3.61578 6.91211C5.20038 5.8299 7.49562 5.14739 10.0491 5.14739ZM3.3046 7.1396C4.40146 7.57121 5.73446 7.90715 6.15599 7.93266C6.27296 7.94117 6.39876 7.95392 6.52456 7.95392C6.80485 7.95392 7.08292 7.8795 7.35217 7.80509C7.51107 7.76256 7.68763 7.7158 7.87301 7.68178C7.82446 7.72855 7.7737 7.77533 7.72515 7.82423L6.96154 8.61941C6.90195 8.67681 6.77174 8.83416 6.85782 9.02551C6.89092 9.10205 6.96154 9.17645 7.05864 9.24024C7.23961 9.35718 7.56624 9.43798 7.8686 9.43798C7.98336 9.43798 8.0915 9.42735 8.19082 9.40609C8.51083 9.33805 8.84629 9.07866 9.20161 8.80651C9.4841 8.58964 9.88798 8.31537 10.1947 8.23457C10.2808 8.21119 10.3867 8.19843 10.4728 8.19843C10.4993 8.19843 10.5214 8.19842 10.5434 8.20268C10.7465 8.22819 10.9429 8.29411 11.296 8.54712C11.9228 9 14.6947 11.3366 14.7212 11.36C14.7234 11.3621 14.9 11.5088 14.8867 11.7534C14.8801 11.8894 14.8007 12.0106 14.666 12.0935C14.5469 12.1658 14.4255 12.202 14.3019 12.202C14.1165 12.202 13.9885 12.1191 13.9797 12.1127C13.9686 12.1042 13.0197 11.2665 12.671 10.9837C12.6158 10.939 12.5606 10.8986 12.5076 10.8986C12.4789 10.8986 12.4525 10.9114 12.4348 10.9305C12.3796 10.9964 12.4414 11.0857 12.5143 11.1453L13.6244 12.219C13.6266 12.2211 13.7634 12.3444 13.7789 12.5081C13.7877 12.6867 13.6994 12.8356 13.5162 12.9504C13.386 13.0333 13.2536 13.0758 13.1234 13.0758C12.9534 13.0758 12.8343 13.0014 12.8078 12.9823L12.6489 12.8313C12.3576 12.5549 12.0574 12.27 11.8367 12.0935C11.7838 12.051 11.7264 12.0106 11.6712 12.0106C11.6447 12.0106 11.6204 12.0191 11.6006 12.0404C11.5763 12.068 11.5586 12.1148 11.6204 12.1956C11.6447 12.2275 11.6756 12.2551 11.6756 12.2551L12.4856 13.1311C12.4922 13.1396 12.6533 13.3225 12.5032 13.5053L12.4745 13.5393C12.4503 13.5648 12.4238 13.5882 12.3995 13.6095C12.2605 13.7179 12.0773 13.7307 12.0044 13.7307C11.9647 13.7307 11.9272 13.7286 11.8941 13.7222C11.8146 13.7094 11.7595 13.686 11.7352 13.6584L11.7242 13.6478C11.68 13.6031 11.2717 13.2034 10.9341 12.9313C10.8899 12.8951 10.8348 12.8505 10.7774 12.8505C10.7487 12.8505 10.7244 12.8611 10.7046 12.8823C10.6383 12.9525 10.7377 13.0588 10.7818 13.0971L11.4726 13.8306C11.4726 13.837 11.4637 13.8519 11.4461 13.8753C11.4218 13.9093 11.3379 13.9879 11.0864 14.0198C11.0555 14.0241 11.0246 14.0262 10.9937 14.0262C10.7354 14.0262 10.4596 13.905 10.3183 13.8327C10.3823 13.7009 10.4176 13.5563 10.4176 13.4118C10.4176 12.8632 9.95639 12.4188 9.3892 12.4188C9.37816 12.4188 9.36492 12.4188 9.35168 12.4188C9.36934 12.168 9.33403 11.6959 8.82863 11.4876C8.68297 11.4281 8.53952 11.3962 8.39827 11.3962C8.28792 11.3962 8.18199 11.4153 8.08268 11.4514C7.97895 11.2558 7.80459 11.1134 7.57948 11.039C7.45369 10.9964 7.3301 10.9773 7.20872 10.9773C6.99905 10.9773 6.80484 11.0368 6.6327 11.1559C6.46718 10.9582 6.21779 10.8412 5.95516 10.8412C5.72564 10.8412 5.50495 10.9305 5.33942 11.0858C5.12535 10.9284 4.27124 10.4054 1.98924 9.90573C1.8811 9.88234 1.63393 9.81431 1.47724 9.76966C1.6891 8.781 2.34015 7.8795 3.3046 7.1396ZM7.53755 12.8632L7.51328 12.8419H7.489C7.46914 12.8419 7.44707 12.8505 7.41838 12.8696C7.30141 12.9483 7.19106 12.9865 7.0763 12.9865C7.01451 12.9865 6.9505 12.9738 6.88649 12.9504C6.35682 12.7526 6.39876 12.27 6.42525 12.1254C6.42966 12.0957 6.42082 12.0723 6.40317 12.0574L6.36565 12.0276L6.33035 12.0595C6.22662 12.1552 6.09199 12.2084 5.95074 12.2084C5.64839 12.2084 5.40121 11.9702 5.40121 11.6789C5.40121 11.3877 5.64839 11.1495 5.95074 11.1495C6.22441 11.1495 6.45835 11.3473 6.49145 11.6109L6.51132 11.7534L6.59298 11.6322C6.6018 11.6173 6.8247 11.2941 7.23299 11.2941C7.31023 11.2941 7.38969 11.3069 7.47134 11.3303C7.79577 11.4259 7.85094 11.7108 7.85977 11.8278C7.86639 11.8958 7.91715 11.9001 7.92598 11.9001C7.95467 11.9001 7.97453 11.8831 7.98998 11.8682C8.05177 11.8065 8.18419 11.7045 8.39385 11.7045C8.48875 11.7045 8.59248 11.7257 8.69621 11.7704C9.21264 11.9851 8.9787 12.6166 8.9765 12.623C8.93236 12.7271 8.93015 12.7739 8.97208 12.8015L8.99195 12.8101H9.0074C9.02947 12.8101 9.06035 12.8016 9.1067 12.7845C9.17732 12.7612 9.28326 12.725 9.38257 12.725C9.771 12.7293 10.0888 13.0354 10.0888 13.4054C10.0888 13.7796 9.771 14.0836 9.38257 14.0836C9.00297 14.0836 8.6918 13.7987 8.67856 13.4351C8.67856 13.4033 8.67414 13.3203 8.60131 13.3203C8.57262 13.3203 8.54613 13.3373 8.51523 13.3629C8.43137 13.4373 8.32543 13.5138 8.16874 13.5138C8.09812 13.5138 8.02088 13.4989 7.94143 13.467C7.53976 13.3097 7.53534 13.0439 7.55079 12.9376C7.55741 12.9164 7.55962 12.8866 7.53755 12.8632ZM1.39558 10.4819C1.39558 10.3629 1.4044 10.2459 1.41543 10.129C1.45295 10.1375 1.83255 10.2247 1.912 10.2417C4.24256 10.7413 5.01279 11.2601 5.143 11.3579C5.09886 11.4599 5.07679 11.5705 5.07679 11.6811C5.07679 12.1446 5.46742 12.523 5.95074 12.523C6.00371 12.523 6.05889 12.5188 6.11186 12.5081C6.18469 12.8504 6.41642 13.1077 6.77174 13.2417C6.87547 13.2799 6.97919 13.2991 7.08292 13.2991C7.14913 13.2991 7.21534 13.2906 7.28155 13.2757C7.34776 13.4351 7.49341 13.635 7.82445 13.7647C7.93922 13.8094 8.0562 13.8327 8.16654 13.8327C8.25703 13.8327 8.34751 13.8178 8.43358 13.786C8.59027 14.1559 8.96766 14.4025 9.38478 14.4025C9.66286 14.4025 9.9277 14.2941 10.1219 14.1006C10.2874 14.1899 10.6383 14.3515 10.9937 14.3515C11.04 14.3515 11.0819 14.3494 11.1261 14.343C11.477 14.3005 11.6425 14.1665 11.7175 14.0645C11.7308 14.0475 11.744 14.0262 11.7551 14.0071C11.8389 14.0305 11.9294 14.0496 12.0353 14.0496C12.2274 14.0496 12.4127 13.9858 12.5981 13.8561C12.7813 13.7286 12.9115 13.5457 12.9314 13.3905C12.9314 13.3884 12.9314 13.3863 12.9314 13.3841C12.9932 13.3969 13.0572 13.4033 13.119 13.4033C13.3176 13.4033 13.5118 13.3437 13.6972 13.2268C14.0569 12.9993 14.1187 12.7037 14.1121 12.5103C14.1761 12.523 14.2401 12.5294 14.3041 12.5294C14.4895 12.5294 14.6727 12.4763 14.847 12.3678C15.0699 12.2317 15.2045 12.0213 15.2244 11.7768C15.2377 11.6109 15.1957 11.4429 15.1052 11.2984C15.7055 11.0496 17.0783 10.567 18.6938 10.2161C18.7004 10.3033 18.7048 10.3926 18.7048 10.4819C18.7048 13.4266 14.8294 15.8164 10.0513 15.8164C5.271 15.8143 1.39558 13.4266 1.39558 10.4819Z" fill="black"/>
</svg>
