<svg width="21" height="15" viewBox="0 0 21 15" fill="none" xmlns="http://www.w3.org/2000/svg">
<path d="M7.54241 5.56649C7.53751 5.57606 7.44163 5.67524 7.50382 5.75498C7.65545 5.94884 8.12418 6.05997 8.59816 5.9536C8.88037 5.89029 9.24205 5.60246 9.59247 5.3245C9.92698 5.02068 10.3108 4.77598 10.7274 4.6009C10.9935 4.50345 11.2842 4.49584 11.5551 4.57925C11.8301 4.68143 12.0854 4.83038 12.3097 5.01954C12.9674 5.51417 15.6127 7.82314 16.0699 8.22213C17.4744 7.63805 18.9285 7.18126 20.4147 6.85727C20.2214 5.6721 19.5086 4.54227 18.415 3.65446C16.8906 4.29466 14.9037 4.67799 13.0822 3.78864C12.4634 3.50848 11.7942 3.35632 11.115 3.34131C9.66998 3.37493 9.04397 4.00022 8.38153 4.66223L7.54241 5.56649Z" fill="white"/>
<path d="M15.9627 8.47338C15.9314 8.44553 12.8524 5.7512 12.1546 5.22687C11.9116 5.01065 11.6118 4.86832 11.2906 4.81665C11.1523 4.80564 11.0132 4.81902 10.8796 4.85617C10.4676 5.01132 10.0865 5.23843 9.75395 5.52691C9.36408 5.83765 8.99627 6.13011 8.65475 6.20664C8.2421 6.29141 7.81276 6.2269 7.44324 6.02462C7.35672 5.97169 7.287 5.89529 7.24217 5.80431C7.21749 5.73459 7.2141 5.65911 7.23244 5.58747C7.25078 5.51582 7.29001 5.45125 7.34516 5.40197L8.19499 4.48283C8.29388 4.38435 8.39319 4.28558 8.49532 4.18858C8.23322 4.22797 7.97432 4.28627 7.72064 4.36302C7.4285 4.46005 7.12449 4.51675 6.81701 4.53155C6.50716 4.50018 6.19924 4.45205 5.8946 4.38737C4.98624 4.17422 4.09954 3.87749 3.24585 3.50098C2.03773 4.40031 1.25104 5.50452 1.01758 6.74302C1.19116 6.78888 1.64601 6.8926 1.76356 6.91866C4.4976 7.5265 5.349 8.15266 5.50348 8.28347C5.59433 8.18121 5.70719 8.10089 5.83356 8.04853C5.95993 7.99617 6.09653 7.97315 6.23308 7.98119C6.36964 7.98924 6.50259 8.02814 6.62194 8.09497C6.74129 8.1618 6.84394 8.25482 6.92216 8.36704C7.10654 8.21797 7.33666 8.137 7.57376 8.13775C7.70697 8.13903 7.83906 8.16217 7.96477 8.20626C8.0866 8.24521 8.19872 8.30972 8.29362 8.39547C8.38852 8.48123 8.46402 8.58626 8.51508 8.70353C8.63454 8.6494 8.76431 8.62179 8.89547 8.62262C9.05233 8.62461 9.20712 8.65875 9.35027 8.72293C9.54932 8.81623 9.7108 8.97434 9.80829 9.17137C9.90578 9.36839 9.9335 9.59268 9.88693 9.80752C9.92309 9.80362 9.95945 9.80169 9.99582 9.80176C10.2832 9.80222 10.5586 9.91661 10.7618 10.1198C10.9649 10.3231 11.0792 10.5986 11.0795 10.8859C11.0795 11.0646 11.0349 11.2405 10.9498 11.3977C11.2328 11.5706 11.5597 11.6582 11.8912 11.6498C11.9738 11.6498 12.0556 11.6328 12.1314 11.5997C12.2072 11.5667 12.2753 11.5184 12.3315 11.4578C12.3588 11.4194 12.3872 11.3744 12.3608 11.342L11.5893 10.4853C11.5893 10.4853 11.4624 10.3651 11.5043 10.3189C11.5477 10.2712 11.6262 10.3395 11.6819 10.386C12.0743 10.7137 12.5535 11.2086 12.5535 11.2086C12.5619 11.214 12.5934 11.2767 12.7707 11.3085C12.8766 11.327 12.9852 11.3239 13.09 11.2994C13.1947 11.275 13.2935 11.2297 13.3804 11.1663C13.4296 11.1251 13.4745 11.0791 13.5146 11.029C13.5119 11.0317 13.5089 11.034 13.5056 11.036C13.5596 10.9612 13.5869 10.8704 13.5829 10.7782C13.5789 10.6861 13.5439 10.598 13.4835 10.5282L12.5829 9.51685C12.5829 9.51685 12.4541 9.39759 12.4983 9.35011C12.5373 9.30843 12.6201 9.37123 12.6766 9.41806C12.9616 9.65652 13.3645 10.0605 13.7506 10.4391C13.8793 10.5262 14.0323 10.5701 14.1876 10.5648C14.3429 10.5594 14.4925 10.5049 14.6149 10.4091C14.7152 10.3538 14.7981 10.2718 14.8545 10.1721C14.9109 10.0725 14.9386 9.95917 14.9345 9.84474C14.9151 9.70166 14.8481 9.56928 14.7444 9.46884L13.5146 8.23191C13.5146 8.23191 13.3843 8.1209 13.4305 8.06492C13.4682 8.01765 13.552 8.08559 13.6077 8.13189C13.9993 8.4598 15.06 9.43255 15.06 9.43255C15.185 9.51322 15.3312 9.55474 15.4799 9.55178C15.6287 9.54882 15.7731 9.50152 15.8948 9.41595C15.9729 9.37024 16.0387 9.30614 16.0865 9.22922C16.1342 9.15231 16.1625 9.0649 16.1688 8.97458C16.1724 8.88114 16.1559 8.78801 16.1203 8.70153C16.0848 8.61504 16.031 8.53723 15.9627 8.47338Z" fill="white"/>
<path d="M9.99545 10.0411C9.85097 10.0614 9.70831 10.093 9.56879 10.1356C9.55359 10.1258 9.58046 10.0491 9.59822 10.0049C9.61678 9.96118 9.86794 9.20519 9.25552 8.94285C9.11848 8.86932 8.96137 8.84199 8.80755 8.86492C8.65373 8.88786 8.51142 8.95983 8.40179 9.07013C8.37617 9.09688 8.36452 9.09465 8.36167 9.06086C8.35802 8.91972 8.31028 8.78326 8.22513 8.67064C8.13998 8.55802 8.02171 8.47488 7.88691 8.43289C7.69599 8.37414 7.49121 8.37863 7.30305 8.44571C7.1149 8.51278 6.95345 8.63884 6.84275 8.80511C6.82304 8.65606 6.75364 8.51801 6.64578 8.41327C6.53792 8.30852 6.3979 8.2432 6.24833 8.22786C6.09877 8.21251 5.9484 8.24804 5.82152 8.32871C5.69464 8.40937 5.59866 8.53046 5.54909 8.6724C5.49952 8.81435 5.49926 8.96886 5.54834 9.11097C5.59742 9.25309 5.69298 9.3745 5.81959 9.4556C5.94619 9.5367 6.09644 9.57274 6.24606 9.55791C6.39567 9.54308 6.53592 9.47824 6.64414 9.37387C6.64801 9.3774 6.64948 9.38367 6.64757 9.39638C6.60227 9.60348 6.63305 9.81996 6.73427 10.0062C6.8355 10.1925 7.0004 10.3361 7.19882 10.4108C7.306 10.4521 7.42214 10.4646 7.53568 10.4471C7.64921 10.4296 7.75617 10.3826 7.84591 10.3109C7.89907 10.2735 7.90768 10.2892 7.9002 10.3393C7.87742 10.4943 7.9064 10.8263 8.37187 11.0148C8.4872 11.0713 8.61767 11.0892 8.74393 11.0657C8.8702 11.0423 8.98554 10.9787 9.07287 10.8845C9.13279 10.8303 9.14912 10.8391 9.15221 10.9234C9.15971 11.0885 9.21553 11.2478 9.31274 11.3815C9.40995 11.5152 9.54427 11.6174 9.69904 11.6754C9.85382 11.7334 10.0222 11.7447 10.1834 11.7079C10.3445 11.6711 10.4913 11.5878 10.6055 11.4683C10.7197 11.3488 10.7963 11.1984 10.8258 11.0358C10.8553 10.8731 10.8364 10.7054 10.7715 10.5534C10.7065 10.4014 10.5984 10.2719 10.4604 10.1808C10.3225 10.0897 10.1608 10.0411 9.99555 10.0411H9.99545Z" fill="white"/>
<path d="M10.7336 0.969727C5.21084 0.969727 0.734038 3.90713 0.734038 7.51012C0.734038 7.6033 0.73291 7.86037 0.73291 7.89301C0.73291 11.7157 4.64589 14.8114 10.7324 14.8114C16.8556 14.8114 20.7329 11.7164 20.7329 7.89372V7.51012C20.7328 3.90713 16.2559 0.969727 10.7336 0.969727ZM20.2821 6.78527C18.8412 7.1041 17.4345 7.56138 16.0815 8.15074C15.1328 7.32298 12.9408 5.41686 12.3472 4.97147C12.117 4.77788 11.8552 4.62549 11.5732 4.52103C11.4503 4.48228 11.3222 4.46228 11.1933 4.46169C11.0293 4.46387 10.8665 4.49129 10.7108 4.543C10.2939 4.71608 9.90975 4.95931 9.57499 5.26213L9.55594 5.27719C9.21148 5.55108 8.85541 5.83439 8.58603 5.89432C8.46817 5.9209 8.34773 5.93439 8.22691 5.93456C8.10569 5.94466 7.98367 5.93068 7.86788 5.89342C7.75209 5.85617 7.64481 5.79637 7.55222 5.71748C7.53545 5.69597 7.54654 5.66135 7.58557 5.61157L7.5906 5.60481L8.42535 4.70562C9.07897 4.05195 9.69642 3.43477 11.1173 3.40216C11.141 3.40147 11.1649 3.40103 11.1882 3.40103C11.8336 3.42736 12.4679 3.57759 13.0565 3.84353C13.8473 4.23885 14.7183 4.44771 15.6024 4.45409C16.5695 4.43739 17.5214 4.20977 18.3915 3.78713C19.4053 4.63971 20.0776 5.66655 20.2821 6.78527ZM10.7353 1.35595C13.6667 1.35595 16.2898 2.19614 18.0532 3.51944C17.2838 3.8709 16.4502 4.05988 15.6044 4.07456C14.777 4.06782 13.9621 3.87167 13.2222 3.50117C12.5825 3.2092 11.8916 3.04597 11.1888 3.02077C11.1621 3.02077 11.1351 3.02118 11.1087 3.02177C10.2622 3.00938 9.43949 3.30147 8.79034 3.84483C8.3973 3.86542 8.00853 3.93639 7.63356 4.056C7.36999 4.1439 7.09592 4.19641 6.81852 4.21214C6.71399 4.21214 6.52595 4.20258 6.50908 4.20184C5.51177 4.02629 4.53357 3.75558 3.5879 3.39343C5.34786 2.14276 7.8976 1.35595 10.7353 1.35595ZM3.24189 3.65452C4.46152 4.15337 5.94118 4.53858 6.40908 4.56889C6.5396 4.57747 6.67866 4.59223 6.81779 4.59253C7.13074 4.57735 7.4402 4.51985 7.73772 4.4216C7.91486 4.37194 8.11019 4.31778 8.31577 4.27854C8.26074 4.33227 8.20604 4.38685 8.15102 4.442L7.30329 5.35906C7.23882 5.41621 7.19321 5.49158 7.17249 5.5752C7.15176 5.65882 7.1569 5.74676 7.18721 5.8274C7.23642 5.9294 7.31374 6.01521 7.41008 6.07474C7.68432 6.22974 7.99502 6.30856 8.30998 6.30303C8.43065 6.30387 8.55103 6.29127 8.66891 6.26546C9.02446 6.18587 9.39734 5.88875 9.7921 5.57477C10.1192 5.29238 10.4927 5.06887 10.8962 4.91416C10.9966 4.88748 11.1 4.8733 11.2039 4.87196C11.2306 4.87176 11.2572 4.87335 11.2836 4.87674C11.594 4.92772 11.8836 5.06588 12.1186 5.27513C12.8147 5.79817 15.8941 8.49222 15.9244 8.5188C15.9856 8.57679 16.0337 8.64714 16.0656 8.72517C16.0974 8.8032 16.1123 8.88711 16.1093 8.97134C16.1037 9.0521 16.0783 9.13024 16.0354 9.19886C15.9924 9.26748 15.9333 9.32447 15.8631 9.3648C15.7434 9.44482 15.6031 9.48854 15.4591 9.49071C15.3327 9.49083 15.2089 9.45498 15.1021 9.38733C15.0908 9.37804 14.0358 8.41046 13.6472 8.0853C13.5986 8.03392 13.5346 7.99975 13.4649 7.98795C13.4494 7.98765 13.4341 7.99093 13.4201 7.99752C13.4061 8.00411 13.3938 8.01384 13.3841 8.02596C13.3231 8.10121 13.3915 8.20557 13.4722 8.27396L14.7047 9.51344C14.7966 9.60299 14.8565 9.7203 14.8752 9.84727C14.8783 9.95115 14.8527 10.0539 14.801 10.1441C14.7494 10.2343 14.6738 10.3084 14.5826 10.3582C14.4544 10.4485 14.3023 10.4988 14.1456 10.5027C14.0204 10.5027 13.898 10.4655 13.794 10.3959L13.6172 10.2218C13.294 9.90386 12.9603 9.57497 12.7161 9.37127C12.6668 9.32046 12.6023 9.287 12.5324 9.27589C12.5178 9.27564 12.5034 9.27847 12.49 9.28419C12.4766 9.28991 12.4646 9.2984 12.4548 9.30909C12.4269 9.34003 12.4074 9.3956 12.4773 9.48789C12.496 9.51269 12.5168 9.53588 12.5394 9.55724L13.4386 10.5675C13.4905 10.6263 13.5209 10.7011 13.5246 10.7795C13.5283 10.8578 13.5052 10.9351 13.459 10.9986L13.4272 11.0388C13.4008 11.0673 13.3728 11.0943 13.3433 11.1196C13.2161 11.213 13.0616 11.2619 12.9038 11.2588C12.8631 11.259 12.8224 11.2556 12.7823 11.2486C12.7167 11.2434 12.6545 11.2172 12.605 11.1739L12.5938 11.1625C12.5449 11.1117 12.0916 10.6489 11.7166 10.3357C11.67 10.2863 11.6086 10.2534 11.5416 10.2422C11.5262 10.2421 11.511 10.2452 11.497 10.2514C11.483 10.2577 11.4704 10.2669 11.4602 10.2784C11.3863 10.3596 11.4977 10.481 11.5449 10.5256L12.3116 11.3718C12.3051 11.3905 12.2954 11.408 12.2829 11.4234C12.2554 11.4614 12.1625 11.5545 11.8842 11.5894C11.8504 11.5937 11.8164 11.5958 11.7824 11.5956C11.5184 11.5787 11.2617 11.5025 11.0312 11.3728C11.1134 11.1984 11.1501 11.0062 11.1381 10.8138C11.1261 10.6215 11.0657 10.4353 10.9625 10.2725C10.8594 10.1097 10.7167 9.97565 10.5479 9.88272C10.379 9.78979 10.1895 9.74102 9.99674 9.74092C9.98328 9.74092 9.96891 9.74134 9.95543 9.74178C9.98826 9.52396 9.9494 9.30137 9.84471 9.10756C9.74001 8.91376 9.57515 8.75924 9.37498 8.66729C9.22441 8.59974 9.06157 8.56385 8.89656 8.56185C8.77671 8.56128 8.65777 8.58283 8.54575 8.62543C8.42918 8.39909 8.22777 8.22807 7.98553 8.14974C7.85359 8.10297 7.71478 8.07854 7.57481 8.07745C7.34524 8.07616 7.12122 8.14793 6.93514 8.28239C6.85056 8.17613 6.74448 8.08894 6.62386 8.02653C6.50323 7.96413 6.37077 7.92792 6.23517 7.92028C6.09957 7.91264 5.96389 7.93374 5.83701 7.9822C5.71014 8.03066 5.59493 8.10538 5.49895 8.20148C5.2601 8.01892 4.3129 7.41724 1.77748 6.84162C1.65638 6.81418 1.38148 6.73547 1.20834 6.68469C1.44619 5.5466 2.16937 4.50727 3.24194 3.65452H3.24189ZM7.94485 10.2544L7.91741 10.2299H7.8897C7.86122 10.232 7.83411 10.2429 7.81217 10.2612C7.70324 10.345 7.57057 10.3923 7.43318 10.3961C7.36077 10.3955 7.2891 10.3816 7.22174 10.355C7.03567 10.2856 6.88114 10.1509 6.78684 9.97614C6.69255 9.80134 6.66491 9.59826 6.70906 9.40462C6.71209 9.39054 6.71131 9.3759 6.70679 9.36223C6.70227 9.34855 6.69419 9.33633 6.68337 9.32682L6.64188 9.29293L6.60309 9.32991C6.49011 9.43961 6.33881 9.50093 6.18133 9.50084C6.06387 9.50132 5.94875 9.46789 5.84983 9.40454C5.7509 9.3412 5.67236 9.25064 5.62364 9.14375C5.57493 9.03686 5.5581 8.91818 5.5752 8.80195C5.59229 8.68573 5.64257 8.57692 5.72 8.48858C5.79742 8.40024 5.89871 8.33613 6.01168 8.30395C6.12466 8.27177 6.24452 8.27289 6.35688 8.30717C6.46924 8.34145 6.56931 8.40744 6.64507 8.49721C6.72084 8.58698 6.76908 8.69672 6.784 8.81324L6.80501 8.97711L6.89505 8.83839C6.99649 8.68098 7.14717 8.56157 7.3236 8.49879C7.50003 8.43601 7.69228 8.4334 7.87035 8.49136C7.99335 8.52997 8.10116 8.60616 8.17862 8.70921C8.25608 8.81226 8.2993 8.93699 8.30221 9.06587C8.3088 9.14534 8.36537 9.14924 8.37633 9.14924C8.39002 9.14828 8.40336 9.1445 8.41552 9.13814C8.42768 9.13178 8.43839 9.12297 8.44698 9.11226C8.50498 9.05173 8.57474 9.00368 8.65198 8.97107C8.72922 8.93846 8.81231 8.92197 8.89614 8.92262C9.01231 8.92518 9.12677 8.95102 9.23276 8.99864C9.80727 9.24509 9.54674 9.97519 9.54368 9.98264C9.49412 10.1036 9.49219 10.1571 9.5386 10.1879L9.56124 10.1986H9.57811C9.61641 10.1943 9.65389 10.1845 9.6894 10.1695C9.78729 10.1308 9.89071 10.1079 9.99579 10.1018H9.99608C10.099 10.1018 10.2009 10.1221 10.296 10.1615C10.391 10.2009 10.4774 10.2587 10.5502 10.3315C10.6229 10.4043 10.6806 10.4907 10.72 10.5858C10.7594 10.6809 10.7796 10.7828 10.7796 10.8857C10.7795 10.9886 10.7592 11.0905 10.7198 11.1856C10.6804 11.2807 10.6227 11.367 10.5499 11.4398C10.4771 11.5125 10.3907 11.5703 10.2956 11.6096C10.2005 11.649 10.0986 11.6692 9.99567 11.6692C9.79379 11.6704 9.59934 11.5931 9.45343 11.4536C9.30753 11.314 9.22159 11.1232 9.21378 10.9215C9.21263 10.8856 9.20888 10.7903 9.12796 10.7903C9.09117 10.7945 9.0573 10.8124 9.03302 10.8403C8.933 10.9468 8.7948 11.0092 8.6488 11.0138C8.56163 11.012 8.47563 10.9934 8.39556 10.9589C7.94929 10.7777 7.94315 10.4713 7.96118 10.348C7.96557 10.3322 7.96638 10.3156 7.96355 10.2994C7.96073 10.2832 7.95434 10.2678 7.94485 10.2544ZM10.7353 13.6578C5.42502 13.6578 1.12033 10.9039 1.12033 7.50688C1.12116 7.3711 1.12889 7.23544 1.14351 7.10043C1.1859 7.11056 1.60763 7.21139 1.69497 7.23103C4.28495 7.80638 5.14078 8.40453 5.28541 8.51764C5.22391 8.66511 5.19977 8.82547 5.21515 8.9845C5.23052 9.14353 5.28492 9.29631 5.37353 9.42926C5.46213 9.56221 5.5822 9.67123 5.72306 9.74663C5.86392 9.82203 6.02122 9.86149 6.18099 9.86149C6.2407 9.86159 6.30028 9.85608 6.35896 9.84503C6.39721 10.0374 6.48481 10.2165 6.61316 10.3647C6.74151 10.513 6.9062 10.6253 7.09107 10.6907C7.20124 10.734 7.31844 10.7566 7.43681 10.7574C7.51131 10.7579 7.58556 10.7487 7.65771 10.7301C7.74665 10.9173 7.88555 11.0764 8.0591 11.1896C8.23265 11.3029 8.43411 11.3661 8.64128 11.3722C8.74236 11.3722 8.84265 11.3543 8.93748 11.3193C9.00931 11.495 9.12381 11.6501 9.27063 11.7705C9.41746 11.8908 9.59197 11.9727 9.77839 12.0087C9.96481 12.0447 10.1573 12.0336 10.3383 11.9765C10.5194 11.9194 10.6834 11.8181 10.8154 11.6817C11.1108 11.8538 11.443 11.953 11.7844 11.971C11.8334 11.9709 11.8824 11.9678 11.931 11.9617C12.0571 11.9579 12.1808 11.9272 12.2941 11.8718C12.4074 11.8164 12.5075 11.7375 12.5879 11.6403C12.6031 11.6194 12.6167 11.5974 12.6285 11.5745C12.7291 11.6051 12.8336 11.6215 12.9388 11.623C13.1662 11.6184 13.386 11.5399 13.5648 11.3992C13.7535 11.2753 13.8862 11.0823 13.9342 10.8617C13.9346 10.8592 13.9349 10.8568 13.9351 10.8543C14.004 10.8684 14.0742 10.8754 14.1446 10.8754C14.3745 10.8726 14.5983 10.8016 14.7878 10.6714C14.9319 10.5879 15.0509 10.467 15.1321 10.3215C15.2133 10.1761 15.2538 10.0114 15.2493 9.84484C15.3191 9.85938 15.3903 9.86677 15.4616 9.86691C15.6761 9.86459 15.8853 9.80018 16.064 9.68148C16.1827 9.60895 16.2826 9.50937 16.3554 9.39087C16.4283 9.27236 16.4721 9.13831 16.4833 8.99964C16.4975 8.80667 16.451 8.61409 16.3502 8.44891C17.6421 7.9216 18.9761 7.50385 20.338 7.20008C20.3458 7.30182 20.3501 7.40412 20.3501 7.50708C20.3501 10.9039 16.0455 13.6578 10.7353 13.6578L10.7353 13.6578Z" fill="black" fill-opacity="0.9"/>
</svg>
