<svg width="105" height="60" viewBox="0 0 105 60" fill="none" xmlns="http://www.w3.org/2000/svg">
<path fill-rule="evenodd" clip-rule="evenodd" d="M2.44444 2.54089C2.20228 2.54089 2 2.74318 2 2.98534V7.76312H89.6278V2.98534C89.6278 2.74318 89.4255 2.54089 89.1833 2.54089H2.44444ZM89.6278 9.76312H2V57.152C2 57.3942 2.20228 57.5965 2.44444 57.5965H89.1833C89.4255 57.5965 89.6278 57.3942 89.6278 57.152V9.76312ZM0 2.98534C0 1.63861 1.09772 0.540894 2.44444 0.540894H89.1833C90.5301 0.540894 91.6278 1.63861 91.6278 2.98534V57.152C91.6278 58.4987 90.5301 59.5965 89.1833 59.5965H2.44444C1.09772 59.5965 0 58.4987 0 57.152V2.98534Z" fill="#707070"/>
<path d="M4.75556 6.30764C5.47353 6.30764 6.05556 5.72561 6.05556 5.00764C6.05556 4.28967 5.47353 3.70764 4.75556 3.70764C4.03759 3.70764 3.45556 4.28967 3.45556 5.00764C3.45556 5.72561 4.03759 6.30764 4.75556 6.30764Z" fill="#707070"/>
<path d="M8.8 6.30764C9.51797 6.30764 10.1 5.72561 10.1 5.00764C10.1 4.28967 9.51797 3.70764 8.8 3.70764C8.08203 3.70764 7.5 4.28967 7.5 5.00764C7.5 5.72561 8.08203 6.30764 8.8 6.30764Z" fill="#707070"/>
<path d="M12.8444 6.30764C13.5624 6.30764 14.1444 5.72561 14.1444 5.00764C14.1444 4.28967 13.5624 3.70764 12.8444 3.70764C12.1265 3.70764 11.5444 4.28967 11.5444 5.00764C11.5444 5.72561 12.1265 6.30764 12.8444 6.30764Z" fill="#707070"/>
<path fill-rule="evenodd" clip-rule="evenodd" d="M100.75 31.5966L99.5176 30.3338L100.949 28.9371L104.519 32.5966L100.949 36.256L99.5175 34.8594L100.75 33.5966H76.3278V31.5966H100.75Z" fill="#707070"/>
<path d="M1.5 7.76312V8.26312H2H89.6278H90.1278V7.76312V2.98534C90.1278 2.46704 89.7016 2.04089 89.1833 2.04089H2.44444C1.92614 2.04089 1.5 2.46704 1.5 2.98534V7.76312ZM90.1278 9.76312V9.26312H89.6278H2H1.5V9.76312V57.152C1.5 57.6703 1.92614 58.0965 2.44444 58.0965H89.1833C89.7016 58.0965 90.1278 57.6703 90.1278 57.152V34.0966H91.1278V57.152C91.1278 58.2226 90.2539 59.0965 89.1833 59.0965H2.44444C1.37386 59.0965 0.5 58.2226 0.5 57.152V2.98534C0.5 1.91475 1.37386 1.04089 2.44444 1.04089H89.1833C90.2539 1.04089 91.1278 1.91475 91.1278 2.98534V31.0966H90.1278V9.76312ZM91.1278 33.0966H90.1278V32.0966H91.1278V33.0966ZM89.1278 32.0966V33.0966H76.8278V32.0966H89.1278ZM92.1278 33.0966V32.0966H100.75H101.936L101.107 31.2474L100.225 30.3425L100.94 29.6442L103.821 32.5966L100.94 35.549L100.225 34.8506L101.107 33.9457L101.936 33.0966H100.75H92.1278ZM5.55556 5.00764C5.55556 5.44947 5.19739 5.80764 4.75556 5.80764C4.31373 5.80764 3.95556 5.44947 3.95556 5.00764C3.95556 4.56581 4.31373 4.20764 4.75556 4.20764C5.19739 4.20764 5.55556 4.56581 5.55556 5.00764ZM9.6 5.00764C9.6 5.44947 9.24183 5.80764 8.8 5.80764C8.35817 5.80764 8 5.44947 8 5.00764C8 4.56581 8.35817 4.20764 8.8 4.20764C9.24183 4.20764 9.6 4.56581 9.6 5.00764ZM13.6444 5.00764C13.6444 5.44947 13.2863 5.80764 12.8444 5.80764C12.4026 5.80764 12.0444 5.44947 12.0444 5.00764C12.0444 4.56581 12.4026 4.20764 12.8444 4.20764C13.2863 4.20764 13.6444 4.56581 13.6444 5.00764Z" stroke="#707070"/>
</svg>
