<svg width="150" height="101" viewBox="0 0 150 101" fill="none" xmlns="http://www.w3.org/2000/svg">
<path d="M1.5 17.0532H128.741" stroke="black" stroke-opacity="0.55" stroke-width="1.5"/>
<ellipse cx="8.77775" cy="9.40995" rx="1.37345" ry="1.37236" fill="black" fill-opacity="0.55"/>
<ellipse cx="16.102" cy="9.40995" rx="1.37345" ry="1.37236" fill="black" fill-opacity="0.55"/>
<ellipse cx="23.4281" cy="9.40991" rx="1.37345" ry="1.37236" fill="black" fill-opacity="0.55"/>
<g clip-path="url(#clip0_15_49)">
<path d="M150.207 55.3355C150.402 55.1402 150.402 54.8236 150.207 54.6284L147.025 51.4464C146.83 51.2511 146.513 51.2511 146.318 51.4464C146.123 51.6417 146.123 51.9582 146.318 52.1535L149.146 54.9819L146.318 57.8104C146.123 58.0056 146.123 58.3222 146.318 58.5175C146.513 58.7127 146.83 58.7127 147.025 58.5175L150.207 55.3355ZM107.627 55.4819L149.854 55.4819L149.854 54.4819L107.627 54.4819L107.627 55.4819Z" fill="black" fill-opacity="0.55"/>
</g>
<path fill-rule="evenodd" clip-rule="evenodd" d="M122.741 0H7.5C3.35786 0 0 3.35787 0 7.50001V92.825C0 96.9672 3.35787 100.325 7.5 100.325H122.741C126.883 100.325 130.241 96.9672 130.241 92.825V59.9719H128.741V92.825C128.741 96.1387 126.055 98.825 122.741 98.825H7.5C4.18629 98.825 1.5 96.1387 1.5 92.825V7.50001C1.5 4.1863 4.18629 1.5 7.5 1.5H122.741C126.055 1.5 128.741 4.18629 128.741 7.5V49.9719H130.241V7.5C130.241 3.35786 126.883 0 122.741 0Z" fill="black" fill-opacity="0.55"/>
<defs>
<clipPath id="clip0_15_49">
<rect width="42.2266" height="10" fill="white" transform="translate(107.627 49.9819)"/>
</clipPath>
</defs>
</svg>
