<svg width="151" height="101" viewBox="0 0 151 101" fill="none" xmlns="http://www.w3.org/2000/svg">
<path d="M8.0083 1.21191C4.28038 1.21191 1.2583 4.234 1.2583 7.96192V93.2869C1.2583 97.0149 4.28038 100.037 8.0083 100.037H123.25C126.977 100.037 130 97.0149 130 93.2869V7.96191C130 4.23399 126.977 1.21191 123.25 1.21191H8.0083Z" stroke="black" stroke-opacity="0.55" stroke-width="1.5"/>
<path d="M2.0083 17.5151H129.25" stroke="black" stroke-opacity="0.55" stroke-width="1.5"/>
<ellipse cx="9.28605" cy="9.87187" rx="1.37345" ry="1.37236" fill="black" fill-opacity="0.55"/>
<ellipse cx="16.6103" cy="9.87187" rx="1.37345" ry="1.37236" fill="black" fill-opacity="0.55"/>
<ellipse cx="23.9364" cy="9.87187" rx="1.37345" ry="1.37236" fill="black" fill-opacity="0.55"/>
<g clip-path="url(#clip0_7420_34944)">
<rect width="42.2266" height="10" transform="translate(108.135 50.4438)" fill="white"/>
<path d="M150.715 55.7974C150.911 55.6021 150.911 55.2856 150.715 55.0903L147.533 51.9083C147.338 51.713 147.022 51.713 146.826 51.9083C146.631 52.1036 146.631 52.4202 146.826 52.6154L149.655 55.4438L146.826 58.2723C146.631 58.4675 146.631 58.7841 146.826 58.9794C147.022 59.1746 147.338 59.1746 147.533 58.9794L150.715 55.7974ZM108.135 55.9438L150.362 55.9438L150.362 54.9438L108.135 54.9438L108.135 55.9438Z" fill="black" fill-opacity="0.55"/>
</g>
<defs>
<clipPath id="clip0_7420_34944">
<rect width="42.2266" height="10" fill="white" transform="translate(108.135 50.4438)"/>
</clipPath>
</defs>
</svg>
