<svg width="151" height="101" viewBox="0 0 151 101" fill="none" xmlns="http://www.w3.org/2000/svg">
<path d="M2.27539 17.0813H129.517" stroke="black" stroke-opacity="0.55" stroke-width="1.5"/>
<ellipse cx="9.55314" cy="9.43806" rx="1.37345" ry="1.37236" fill="black" fill-opacity="0.55"/>
<ellipse cx="16.8774" cy="9.43806" rx="1.37345" ry="1.37236" fill="black" fill-opacity="0.55"/>
<ellipse cx="24.2035" cy="9.43802" rx="1.37345" ry="1.37236" fill="black" fill-opacity="0.55"/>
<g clip-path="url(#clip0_15_49)">
<path d="M150.982 55.3636C151.178 55.1683 151.178 54.8517 150.982 54.6565L147.8 51.4745C147.605 51.2792 147.289 51.2792 147.093 51.4745C146.898 51.6698 146.898 51.9864 147.093 52.1816L149.922 55.01L147.093 57.8385C146.898 58.0337 146.898 58.3503 147.093 58.5456C147.289 58.7408 147.605 58.7408 147.8 58.5456L150.982 55.3636ZM108.402 55.51L150.629 55.51L150.629 54.51L108.402 54.51L108.402 55.51Z" fill="black" fill-opacity="0.55"/>
</g>
<path fill-rule="evenodd" clip-rule="evenodd" d="M123.517 0.0281067H8.27539C4.13325 0.0281067 0.775391 3.38598 0.775391 7.52811V92.8531C0.775391 96.9953 4.13326 100.353 8.27539 100.353H123.517C127.659 100.353 131.017 96.9953 131.017 92.8531V60H129.517V92.8531C129.517 96.1668 126.83 98.8531 123.517 98.8531H8.27539C4.96168 98.8531 2.27539 96.1669 2.27539 92.8531V7.52811C2.27539 4.2144 4.96168 1.52811 8.27539 1.52811H123.517C126.83 1.52811 129.517 4.2144 129.517 7.52811V50H131.017V7.52811C131.017 3.38597 127.659 0.0281067 123.517 0.0281067Z" fill="black" fill-opacity="0.55"/>
<defs>
<clipPath id="clip0_15_49">
<rect width="42.2266" height="10" fill="white" transform="translate(108.402 50.01)"/>
</clipPath>
</defs>
</svg>
